<?xml version="1.0" encoding="UTF-8" standalone="no"?>
<svg width="300px" height="300px" viewBox="0 0 300 300" version="1.1" xmlns="http://www.w3.org/2000/svg" xmlns:xlink="http://www.w3.org/1999/xlink">
    <!-- Generator: Sketch 3.8.2 (29753) - http://www.bohemiancoding.com/sketch -->
    <title>todoLogo</title>
    <desc>Created with Sketch.</desc>
    <defs></defs>
    <g id="Page-1" stroke="none" stroke-width="1" fill="none" fill-rule="evenodd">
        <g id="todoLogo" fill="#FFFFFF">
            <g id="Group" transform="translate(104.947096, 136.431379) rotate(40.000000) translate(-104.947096, -136.431379) translate(22.447096, 12.431379)">
                <path d="M0.102006228,49.4791279 C0.102006244,34.8933697 3.482886,22.8577355 3.482886,22.8577355 C4.12612982,20.1748823 6.88781754,18 9.65586569,18 L131.943919,18 C137.465854,18 143.746218,22.0994368 145.971257,27.1557873 L164.158652,68.4862221 C166.383802,73.5428238 163.99104,79.2224332 159.381797,80.9582554 L159.381797,80.9582554 L9.64236996,80.9582558 C6.88382472,80.9582558 4.10379433,78.7906761 3.48288599,76.1005203 C3.48288599,76.1005203 0.102006211,64.0648861 0.102006228,49.4791279 Z" id="Rectangle-1" transform="translate(82.551003, 49.479128) scale(-1, 1) translate(-82.551003, -49.479128) "></path>
                <path d="M3.94411327,147.977596 C3.94411327,143.556558 7.53282444,139.90725 11.9437507,139.826929 L157.816626,137.170644 C162.234704,137.090193 166.006466,140.610042 166.237843,145.009784 L166.889953,157.714093 C167.095826,162.123773 167.26314,169.275181 167.109585,173.696307 L166.386966,186.211144 C166.071776,190.609395 162.227552,194.121114 157.816626,194.055026 L11.9437507,191.869452 C7.52567295,191.803257 3.94411327,188.170325 3.94411327,183.744599 L3.94411327,147.977596 Z" id="Rectangle-2" transform="translate(85.556731, 165.612618) rotate(90.000000) translate(-85.556731, -165.612618) "></path>
                <path d="M61,7.54836324 C61,6.99950782 61.3338703,6.25614217 61.7741032,5.90929875 C61.7741032,5.90929875 67.2390213,0.190203298 85.6772633,0.190203328 C104.115505,0.190203358 109.59612,5.92106484 109.59612,5.92106484 C110.014976,6.27094151 110.354526,7.00185887 110.354526,7.5483633 L110.354526,13.6654443 C110.354526,14.2142998 109.897451,14.659235 109.346286,14.659235 L62.0082402,14.6592345 C61.4514045,14.6592345 61,14.2119482 61,13.6654439 L61,7.54836324 Z" id="Rectangle-3"></path>
            </g>
        </g>
    </g>
</svg>