<svg width="300" height="300" viewBox="0 0 300 300" xmlns="http://www.w3.org/2000/svg"><title>todoLogo</title><g fill="#FFF" fill-rule="evenodd"><path d="M216.047 132.375c9.375-11.173 14.522-22.566 14.522-22.566 1.232-2.469.514-5.91-1.606-7.69l-93.679-78.605c-4.23-3.55-11.676-4.446-16.63-2.003l-40.5 19.97c-4.954 2.444-6.772 8.333-4.357 12.625l114.707 96.251c2.113 1.773 5.636 1.9 7.841.238 0 0 10.326-7.047 19.702-18.22zM146.51 119.09c3.386 2.842 3.875 7.937 1.101 11.367L55.881 243.91c-2.779 3.436-7.9 4.063-11.419 1.412l-10.15-7.667c-3.511-2.677-9.097-7.145-12.385-10.105l-9.122-8.598c-3.167-3.068-3.386-8.27-.5-11.607l95.44-110.34c2.89-3.342 7.975-3.75 11.365-.906l27.4 22.991zM163.33 33.404c.354-.42 1.087-.775 1.647-.758 0 0 7.863-.868 21.987 10.984 14.125 11.852 14.64 19.765 14.64 19.765.096.537-.114 1.315-.465 1.734l-3.932 4.686c-.353.42-.99.467-1.412.113L159.532 39.5a1.003 1.003 0 0 1-.133-1.41l3.932-4.686z"/></g></svg>